<svg width="40" height="40" viewBox="0 0 21 21" fill="none" xmlns="http://www.w3.org/2000/svg">
<path d="M18.75 0H2.08333C0.93274 0 0 0.93274 0 2.08333V18.75C0 19.9006 0.93274 20.8333 2.08333 20.8333H18.75C19.9006 20.8333 20.8333 19.9006 20.8333 18.75V2.08333C20.8333 0.93274 19.9006 0 18.75 0Z" fill="#B00021"/>
<path d="M15.4583 16.5C15.1821 16.5 14.9171 16.3903 14.7218 16.1949C14.5264 15.9996 14.4167 15.7346 14.4167 15.4583C14.4167 8.42708 13.4375 6.29167 13.0521 6.08333C12.6979 6.22917 11.6042 8.34375 11.2917 13.8021C11.2757 14.0674 11.159 14.3165 10.9653 14.4986C10.7717 14.6806 10.5158 14.7817 10.25 14.7812C9.98423 14.7817 9.72832 14.6806 9.53468 14.4986C9.34103 14.3165 9.22428 14.0674 9.20833 13.8021C8.86458 7.78125 7.63542 6.16667 7.34375 6.08333C7.0625 6.29167 6.08333 8.42708 6.08333 15.4583C6.08333 15.7346 5.97359 15.9996 5.77824 16.1949C5.58289 16.3903 5.31793 16.5 5.04167 16.5C4.7654 16.5 4.50045 16.3903 4.3051 16.1949C4.10975 15.9996 4 15.7346 4 15.4583C4 5.1875 5.91667 4 7.35417 4C8.79167 4 9.64583 5.28125 10.25 7.125C10.8542 5.30208 11.7708 4 13.1458 4C14.5208 4 16.5 5.1875 16.5 15.4583C16.5 15.7346 16.3903 15.9996 16.1949 16.1949C15.9996 16.3903 15.7346 16.5 15.4583 16.5Z" fill="#FFC01C"/>
</svg>
